<?xml version="1.0" encoding="UTF-8" standalone="no"?>
<!DOCTYPE svg PUBLIC "-//W3C//DTD SVG 1.1//EN"
 "http://www.w3.org/Graphics/SVG/1.1/DTD/svg11.dtd">
<!-- Generated by graphviz version 14.0.5 (20251129.0259)
 -->
<!-- Title: config Pages: 1 -->
<svg width="680pt" height="116pt"
 viewBox="0.00 0.00 680.00 116.00" xmlns="http://www.w3.org/2000/svg" xmlns:xlink="http://www.w3.org/1999/xlink">
<g id="graph0" class="graph" transform="scale(1 1) rotate(0) translate(4 112)">
<title>config</title>
<polygon fill="white" stroke="none" points="-4,4 -4,-112 675.62,-112 675.62,4 -4,4"/>
<!-- a0 -->
<g id="node1" class="node">
<title>a0</title>
<g id="a_node1"><a xlink:href="../tutorials/config.html#job" xlink:title="JOB" target="_top">
<polygon fill="none" stroke="black" points="88,-108 38,-108 34,-104 34,-72 84,-72 88,-76 88,-108"/>
<polyline fill="none" stroke="black" points="84,-104 34,-104"/>
<polyline fill="none" stroke="black" points="84,-104 84,-72"/>
<polyline fill="none" stroke="black" points="84,-104 88,-108"/>
<text xml:space="preserve" text-anchor="middle" x="61" y="-84.95" font-family="Times,serif" font-size="14.00">JOB</text>
</a>
</g>
</g>
<!-- a1 -->
<g id="node2" class="node">
<title>a1</title>
<g id="a_node2"><a xlink:href="../tutorials/config.html#path" xlink:title="PATH" target="_top">
<polygon fill="none" stroke="black" points="160,-108 110,-108 106,-104 106,-72 156,-72 160,-76 160,-108"/>
<polyline fill="none" stroke="black" points="156,-104 106,-104"/>
<polyline fill="none" stroke="black" points="156,-104 156,-72"/>
<polyline fill="none" stroke="black" points="156,-104 160,-108"/>
<text xml:space="preserve" text-anchor="middle" x="133" y="-84.95" font-family="Times,serif" font-size="14.00">PATH</text>
</a>
</g>
</g>
<!-- a6 -->
<g id="node3" class="node">
<title>a6</title>
<g id="a_node3"><a xlink:href="../tutorials/config.html#gsystem" xlink:title="GSYSTEM" target="_top">
<polygon fill="none" stroke="black" points="257.88,-108 182.12,-108 178.12,-104 178.12,-72 253.88,-72 257.88,-76 257.88,-108"/>
<polyline fill="none" stroke="black" points="253.88,-104 178.12,-104"/>
<polyline fill="none" stroke="black" points="253.88,-104 253.88,-72"/>
<polyline fill="none" stroke="black" points="253.88,-104 257.88,-108"/>
<text xml:space="preserve" text-anchor="middle" x="218" y="-84.95" font-family="Times,serif" font-size="14.00">GSYSTEM</text>
</a>
</g>
</g>
<!-- b601 -->
<g id="node9" class="node">
<title>b601</title>
<g id="a_node9"><a xlink:href="../tutorials/config.html#cell" xlink:title="cell" target="_top">
<polygon fill="none" stroke="black" points="294,-36 240,-36 240,0 294,0 294,-36"/>
<text xml:space="preserve" text-anchor="middle" x="267" y="-12.95" font-family="Times,serif" font-size="14.00">cell</text>
</a>
</g>
</g>
<!-- a6&#45;&gt;b601 -->
<g id="edge1" class="edge">
<title>a6&#45;&gt;b601</title>
<path fill="none" stroke="blue" d="M230.11,-71.7C235.69,-63.73 242.43,-54.1 248.62,-45.26"/>
<polygon fill="blue" stroke="blue" points="251.29,-47.54 254.16,-37.34 245.56,-43.53 251.29,-47.54"/>
</g>
<!-- b602 -->
<g id="node10" class="node">
<title>b602</title>
<g id="a_node10"><a xlink:href="../tutorials/config.html#grid" xlink:title="grid" target="_top">
<polygon fill="none" stroke="black" points="366,-36 312,-36 312,0 366,0 366,-36"/>
<text xml:space="preserve" text-anchor="middle" x="339" y="-12.95" font-family="Times,serif" font-size="14.00">grid</text>
</a>
</g>
</g>
<!-- a6&#45;&gt;b602 -->
<g id="edge2" class="edge">
<title>a6&#45;&gt;b602</title>
<path fill="none" stroke="blue" d="M248.22,-71.52C264.49,-62.11 284.69,-50.42 301.9,-40.46"/>
<polygon fill="blue" stroke="blue" points="303.43,-43.62 310.33,-35.59 299.92,-37.56 303.43,-43.62"/>
</g>
<!-- b603 -->
<g id="node11" class="node">
<title>b603</title>
<g id="a_node11"><a xlink:href="../tutorials/config.html#density" xlink:title="density" target="_top">
<polygon fill="none" stroke="black" points="439.5,-36 384.5,-36 384.5,0 439.5,0 439.5,-36"/>
<text xml:space="preserve" text-anchor="middle" x="412" y="-12.95" font-family="Times,serif" font-size="14.00">density</text>
</a>
</g>
</g>
<!-- a6&#45;&gt;b603 -->
<g id="edge3" class="edge">
<title>a6&#45;&gt;b603</title>
<path fill="none" stroke="blue" d="M258.1,-76.75C287.77,-67.4 329.29,-53.72 373.8,-36.27"/>
<polygon fill="blue" stroke="blue" points="374.84,-39.62 382.85,-32.69 372.26,-33.12 374.84,-39.62"/>
</g>
<!-- b604 -->
<g id="node12" class="node">
<title>b604</title>
<g id="a_node12"><a xlink:href="../tutorials/config.html#exc" xlink:title="exc" target="_top">
<polygon fill="none" stroke="black" points="54,-36 0,-36 0,0 54,0 54,-36"/>
<text xml:space="preserve" text-anchor="middle" x="27" y="-12.95" font-family="Times,serif" font-size="14.00">exc</text>
</a>
</g>
</g>
<!-- a6&#45;&gt;b604 -->
<g id="edge4" class="edge">
<title>a6&#45;&gt;b604</title>
<path fill="none" stroke="blue" d="M177.63,-74.97C174.71,-73.96 171.81,-72.96 169,-72 125.16,-56.95 111.04,-54.89 65.04,-36.62"/>
<polygon fill="blue" stroke="blue" points="66.36,-33.38 55.78,-32.89 63.75,-39.87 66.36,-33.38"/>
</g>
<!-- b605 -->
<g id="node13" class="node">
<title>b605</title>
<g id="a_node13"><a xlink:href="../tutorials/config.html#kedf" xlink:title="kedf" target="_top">
<polygon fill="none" stroke="black" points="126,-36 72,-36 72,0 126,0 126,-36"/>
<text xml:space="preserve" text-anchor="middle" x="99" y="-12.95" font-family="Times,serif" font-size="14.00">kedf</text>
</a>
</g>
</g>
<!-- a6&#45;&gt;b605 -->
<g id="edge5" class="edge">
<title>a6&#45;&gt;b605</title>
<path fill="none" stroke="blue" d="M188.28,-71.52C172.4,-62.17 152.7,-50.59 135.85,-40.68"/>
<polygon fill="blue" stroke="blue" points="138.01,-37.88 127.61,-35.83 134.46,-43.92 138.01,-37.88"/>
</g>
<!-- b606 -->
<g id="node14" class="node">
<title>b606</title>
<g id="a_node14"><a xlink:href="../tutorials/config.html#decompose" xlink:title="decompose" target="_top">
<polygon fill="none" stroke="black" points="221.75,-36 144.25,-36 144.25,0 221.75,0 221.75,-36"/>
<text xml:space="preserve" text-anchor="middle" x="183" y="-12.95" font-family="Times,serif" font-size="14.00">decompose</text>
</a>
</g>
</g>
<!-- a6&#45;&gt;b606 -->
<g id="edge6" class="edge">
<title>a6&#45;&gt;b606</title>
<path fill="none" stroke="blue" d="M209.35,-71.7C205.53,-64.07 200.96,-54.92 196.7,-46.4"/>
<polygon fill="blue" stroke="blue" points="199.83,-44.84 192.23,-37.46 193.57,-47.97 199.83,-44.84"/>
</g>
<!-- a2 -->
<g id="node4" class="node">
<title>a2</title>
<g id="a_node4"><a xlink:href="../tutorials/config.html#math" xlink:title="MATH" target="_top">
<polygon fill="none" stroke="black" points="439.5,-108 388.5,-108 384.5,-104 384.5,-72 435.5,-72 439.5,-76 439.5,-108"/>
<polyline fill="none" stroke="black" points="435.5,-104 384.5,-104"/>
<polyline fill="none" stroke="black" points="435.5,-104 435.5,-72"/>
<polyline fill="none" stroke="black" points="435.5,-104 439.5,-108"/>
<text xml:space="preserve" text-anchor="middle" x="412" y="-84.95" font-family="Times,serif" font-size="14.00">MATH</text>
</a>
</g>
</g>
<!-- a3 -->
<g id="node5" class="node">
<title>a3</title>
<g id="a_node5"><a xlink:href="../tutorials/config.html#pp" xlink:title="PP" target="_top">
<polygon fill="none" stroke="black" points="512,-108 462,-108 458,-104 458,-72 508,-72 512,-76 512,-108"/>
<polyline fill="none" stroke="black" points="508,-104 458,-104"/>
<polyline fill="none" stroke="black" points="508,-104 508,-72"/>
<polyline fill="none" stroke="black" points="508,-104 512,-108"/>
<text xml:space="preserve" text-anchor="middle" x="485" y="-84.95" font-family="Times,serif" font-size="14.00">PP</text>
</a>
</g>
</g>
<!-- a5 -->
<g id="node6" class="node">
<title>a5</title>
<g id="a_node6"><a xlink:href="../tutorials/config.html#opt" xlink:title="OPT" target="_top">
<polygon fill="none" stroke="black" points="584,-108 534,-108 530,-104 530,-72 580,-72 584,-76 584,-108"/>
<polyline fill="none" stroke="black" points="580,-104 530,-104"/>
<polyline fill="none" stroke="black" points="580,-104 580,-72"/>
<polyline fill="none" stroke="black" points="580,-104 584,-108"/>
<text xml:space="preserve" text-anchor="middle" x="557" y="-84.95" font-family="Times,serif" font-size="14.00">OPT</text>
</a>
</g>
</g>
<!-- a4 -->
<g id="node7" class="node">
<title>a4</title>
<g id="a_node7"><a xlink:href="../tutorials/config.html#output" xlink:title="OUTPUT" target="_top">
<polygon fill="none" stroke="black" points="671.62,-108 606.38,-108 602.38,-104 602.38,-72 667.62,-72 671.62,-76 671.62,-108"/>
<polyline fill="none" stroke="black" points="667.62,-104 602.38,-104"/>
<polyline fill="none" stroke="black" points="667.62,-104 667.62,-72"/>
<polyline fill="none" stroke="black" points="667.62,-104 671.62,-108"/>
<text xml:space="preserve" text-anchor="middle" x="637" y="-84.95" font-family="Times,serif" font-size="14.00">OUTPUT</text>
</a>
</g>
</g>
<!-- a7 -->
<g id="node8" class="node">
<title>a7</title>
<g id="a_node8"><a xlink:href="../tutorials/config.html#sub" xlink:title="SUB" target="_top">
<polygon fill="none" stroke="black" points="366,-108 316,-108 312,-104 312,-72 362,-72 366,-76 366,-108"/>
<polyline fill="none" stroke="black" points="362,-104 312,-104"/>
<polyline fill="none" stroke="black" points="362,-104 362,-72"/>
<polyline fill="none" stroke="black" points="362,-104 366,-108"/>
<text xml:space="preserve" text-anchor="middle" x="339" y="-84.95" font-family="Times,serif" font-size="14.00">SUB</text>
</a>
</g>
</g>
<!-- a7&#45;&gt;b601 -->
<g id="edge7" class="edge">
<title>a7&#45;&gt;b601</title>
<path fill="none" stroke="black" d="M321.2,-71.7C312.72,-63.45 302.41,-53.43 293.07,-44.35"/>
<polygon fill="black" stroke="black" points="295.54,-41.86 285.93,-37.4 290.66,-46.88 295.54,-41.86"/>
</g>
<!-- a7&#45;&gt;b602 -->
<g id="edge8" class="edge">
<title>a7&#45;&gt;b602</title>
<path fill="none" stroke="black" d="M339,-71.7C339,-64.41 339,-55.73 339,-47.54"/>
<polygon fill="black" stroke="black" points="342.5,-47.62 339,-37.62 335.5,-47.62 342.5,-47.62"/>
</g>
<!-- a7&#45;&gt;b603 -->
<g id="edge9" class="edge">
<title>a7&#45;&gt;b603</title>
<path fill="none" stroke="black" d="M357.04,-71.7C365.73,-63.37 376.31,-53.22 385.86,-44.07"/>
<polygon fill="black" stroke="black" points="388.02,-46.84 392.82,-37.39 383.18,-41.79 388.02,-46.84"/>
</g>
<!-- a7&#45;&gt;b604 -->
<g id="edge10" class="edge">
<title>a7&#45;&gt;b604</title>
<path fill="none" stroke="black" d="M311.73,-82.17C298.3,-78.91 281.84,-75.06 267,-72 180.26,-54.12 152.82,-63.15 64.94,-36.15"/>
<polygon fill="black" stroke="black" points="66.25,-32.89 55.66,-33.22 64.14,-39.57 66.25,-32.89"/>
</g>
<!-- a7&#45;&gt;b605 -->
<g id="edge11" class="edge">
<title>a7&#45;&gt;b605</title>
<path fill="none" stroke="black" d="M311.83,-82.61C267.94,-72.19 182.47,-51.44 136.95,-36.26"/>
<polygon fill="black" stroke="black" points="138.32,-33.03 127.72,-33.03 136.01,-39.64 138.32,-33.03"/>
</g>
<!-- a7&#45;&gt;b606 -->
<g id="edge12" class="edge">
<title>a7&#45;&gt;b606</title>
<path fill="none" stroke="black" d="M311.83,-76.81C289.86,-66.95 258.38,-52.82 232.03,-41"/>
<polygon fill="black" stroke="black" points="233.78,-37.95 223.22,-37.05 230.92,-44.34 233.78,-37.95"/>
</g>
<!-- b707 -->
<g id="node15" class="node">
<title>b707</title>
<g id="a_node15"><a xlink:href="../tutorials/config.html#mix" xlink:title="mix" target="_top">
<polygon fill="none" stroke="black" points="512,-36 458,-36 458,0 512,0 512,-36"/>
<text xml:space="preserve" text-anchor="middle" x="485" y="-12.95" font-family="Times,serif" font-size="14.00">mix</text>
</a>
</g>
</g>
<!-- a7&#45;&gt;b707 -->
<g id="edge13" class="edge">
<title>a7&#45;&gt;b707</title>
<path fill="none" stroke="black" d="M366.46,-75.83C389.3,-64.88 422.04,-49.18 447.33,-37.06"/>
<polygon fill="black" stroke="black" points="448.79,-40.24 456.3,-32.76 445.77,-33.93 448.79,-40.24"/>
</g>
<!-- b708 -->
<g id="node16" class="node">
<title>b708</title>
<g id="a_node16"><a xlink:href="../tutorials/config.html#id2" xlink:title="opt" target="_top">
<polygon fill="none" stroke="black" points="584,-36 530,-36 530,0 584,0 584,-36"/>
<text xml:space="preserve" text-anchor="middle" x="557" y="-12.95" font-family="Times,serif" font-size="14.00">opt</text>
</a>
</g>
</g>
<!-- a7&#45;&gt;b708 -->
<g id="edge14" class="edge">
<title>a7&#45;&gt;b708</title>
<path fill="none" stroke="black" d="M366.24,-75.79C369.5,-74.42 372.8,-73.12 376,-72 435.36,-51.2 456.24,-57.5 518.86,-36.36"/>
<polygon fill="black" stroke="black" points="520,-39.67 528.29,-33.07 517.7,-33.06 520,-39.67"/>
</g>
<!-- b709 -->
<g id="node17" class="node">
<title>b709</title>
<g id="a_node17"><a xlink:href="../tutorials/config.html#kpoints" xlink:title="kpoints" target="_top">
<polygon fill="none" stroke="black" points="657.88,-36 602.12,-36 602.12,0 657.88,0 657.88,-36"/>
<text xml:space="preserve" text-anchor="middle" x="630" y="-12.95" font-family="Times,serif" font-size="14.00">kpoints</text>
</a>
</g>
</g>
<!-- a7&#45;&gt;b709 -->
<g id="edge15" class="edge">
<title>a7&#45;&gt;b709</title>
<path fill="none" stroke="black" d="M366.16,-75.54C369.43,-74.21 372.76,-72.99 376,-72 466.09,-44.37 497.28,-63.19 591.19,-36.04"/>
<polygon fill="black" stroke="black" points="592,-39.45 600.57,-33.23 589.99,-32.75 592,-39.45"/>
</g>
</g>
</svg>
